<svg width="56" height="56" viewBox="0 0 56 56" fill="none" xmlns="http://www.w3.org/2000/svg">
<path fill-rule="evenodd" clip-rule="evenodd" d="M31.1569 2.64271C30.9505 1.59255 30.2329 0.664938 29.1654 0.237218C27.5082 -0.426811 25.6289 0.362793 24.9393 2.00192L24.9307 1.99804C23.8737 4.35507 21.9709 6.3262 19.4162 7.41929C16.9658 8.46776 14.3452 8.52453 11.9867 7.76575C11.9203 7.73383 11.8524 7.70393 11.7831 7.67613C10.1082 7.00501 8.20639 7.81873 7.53528 9.49361C7.1243 10.5193 7.27016 11.6301 7.82962 12.4912C8.53083 14.745 8.48971 17.2353 7.54534 19.5922C6.62057 21.9001 4.98091 23.7025 2.97561 24.8525C1.93061 25.0621 1.00869 25.7783 0.582675 26.8415C-0.0808445 28.4974 0.707053 30.3752 2.34364 31.0661L2.33885 31.0767C4.69586 32.1337 6.66697 34.0365 7.76004 36.5912C8.81133 39.0483 8.86557 41.6765 8.10035 44.0399C8.07197 44.0999 8.04522 44.1612 8.02018 44.2237C7.34907 45.8986 8.16278 47.8004 9.83765 48.4715C10.8681 48.8844 11.9845 48.7353 12.8473 48.1693C15.0965 47.4736 17.5801 47.5169 19.9309 48.4589C22.2437 49.3857 24.0489 51.0303 25.1985 53.0414C25.411 54.0818 26.1258 54.9987 27.1852 55.4232C28.8417 56.087 30.7201 55.2983 31.4104 53.6606L31.4206 53.6652C32.4776 51.3081 34.3803 49.337 36.9351 48.2439C39.3868 47.1949 42.009 47.1386 44.3684 47.8987C44.4332 47.9297 44.4994 47.9588 44.5671 47.9859C46.2419 48.6571 48.1437 47.8433 48.8148 46.1685C49.2279 45.1376 49.0785 44.0209 48.5121 43.158C47.816 40.9084 47.8592 38.4243 48.8013 36.073C49.7273 33.7622 51.3699 31.9581 53.3786 30.8084C54.4206 30.5969 55.3392 29.8815 55.7642 28.8208C56.428 27.1643 55.6393 25.2857 54.0015 24.5955L54.0055 24.5865C51.6485 23.5295 49.6774 21.6267 48.5843 19.072C47.5348 16.619 47.479 13.9955 48.2402 11.6351C48.271 11.5708 48.2998 11.5051 48.3267 11.438C48.9978 9.76309 48.1841 7.86127 46.5093 7.19015C45.4765 6.77631 44.3574 6.92707 43.4938 7.4962C41.2454 8.19087 38.763 8.14717 36.4132 7.20562C34.1079 6.2819 32.307 4.64491 31.1569 2.64271ZM42.7361 33.6427C41.788 36.0089 41.405 38.4639 41.5226 40.8556C39.1368 40.7972 36.7003 41.2373 34.3648 42.2366C32.0195 43.2401 30.0117 44.7066 28.4031 46.4826C26.7566 44.7524 24.7212 43.3392 22.3613 42.3936C19.995 41.4455 17.54 41.0625 15.1483 41.1802C15.2069 38.7939 14.7668 36.3569 13.7673 34.0209C12.7644 31.6769 11.299 29.67 9.52426 28.0618C11.2533 26.4158 12.6655 24.3812 13.6106 22.0225C14.559 19.6556 14.9419 17.1999 14.8239 14.8075C17.2113 14.8666 19.6495 14.4265 21.9865 13.4266C24.3298 12.424 26.3362 10.9591 27.9441 9.18508C29.59 10.9139 31.6244 12.3259 33.9829 13.2709C36.3493 14.2191 38.8043 14.602 41.1961 14.4844C41.1376 16.8702 41.5778 19.3068 42.5771 21.6423C43.5804 23.9873 45.0466 25.9949 46.8224 27.6034C45.0933 29.2494 43.6812 31.284 42.7361 33.6427ZM22.8482 29.575C22.0579 28.4818 20.531 28.2363 19.4379 29.0267C18.3447 29.817 18.0992 31.3438 18.8896 32.437C20.9734 35.3193 24.3892 37.1935 28.2368 37.1935C32.0845 37.1935 35.5003 35.3193 37.5841 32.437C38.3744 31.3438 38.1289 29.817 37.0358 29.0267C35.9426 28.2363 34.4158 28.4818 33.6255 29.575C32.4317 31.2262 30.4688 32.3086 28.2368 32.3086C26.0049 32.3086 24.042 31.2262 22.8482 29.575Z" fill="url(#paint0_linear_16_13131)"/>
<path fill-rule="evenodd" clip-rule="evenodd" d="M28.8216 0.238218C29.8893 0.66605 30.607 1.59398 30.8134 2.64445C31.9636 4.64651 33.7645 6.28336 36.0698 7.20706C38.419 8.1484 40.9008 8.19237 43.1489 7.49833C44.0129 6.928 45.133 6.77664 46.1668 7.19085C47.8418 7.86204 48.6556 9.76406 47.9844 11.4391C47.9577 11.5057 47.9291 11.571 47.8986 11.6348C47.1365 13.996 47.192 16.6207 48.242 19.0747C49.3352 21.6297 51.3065 23.5327 53.6637 24.5898L53.6601 24.5978C55.298 25.2882 56.0868 27.1669 55.423 28.8236C54.9984 29.8831 54.0813 30.5981 53.0408 30.8106C51.03 31.9603 49.3856 33.7654 48.4589 36.0781C47.5172 38.4285 47.4736 40.9115 48.1686 43.1604C48.7362 44.0237 48.8862 45.1416 48.4728 46.1733C47.8016 47.8484 45.8996 48.6622 44.2246 47.991C44.158 47.9643 44.0928 47.9357 44.029 47.9052C41.6685 47.144 39.0449 47.1999 36.5919 48.2495C34.0369 49.3427 32.1339 51.314 31.0768 53.6713L31.0669 53.6668C30.3763 55.3043 28.4979 56.0928 26.8414 55.4291C25.7829 55.0049 25.0683 54.0892 24.8551 53.0499C23.7054 51.0376 21.8996 49.3919 19.5858 48.4647C17.2332 47.5221 14.7477 47.4793 12.4971 48.1764C11.6348 48.7403 10.5201 48.8884 9.49105 48.4761C7.81601 47.8049 7.00223 45.9029 7.6734 44.2279C7.69894 44.1641 7.72626 44.1016 7.75529 44.0404C8.5191 41.6779 8.46426 39.0512 7.41352 36.5954C6.32033 34.0404 4.34902 32.1375 1.99177 31.0804L1.99678 31.0692C0.359956 30.3783 -0.42807 28.5003 0.235531 26.8442C0.661882 25.7801 1.58488 25.0636 2.63088 24.8545C4.63539 23.7044 6.27434 21.9023 7.19887 19.5949C8.14376 17.2368 8.1845 14.7451 7.48225 12.4903C6.92417 11.6294 6.77903 10.5198 7.18963 9.49507C7.86081 7.82002 9.76279 7.00622 11.4378 7.6774C11.5089 7.70589 11.5785 7.73659 11.6464 7.7694C14.0035 8.52617 16.6219 8.46857 19.0705 7.42091C21.6255 6.32772 23.5284 4.35639 24.5855 1.99912L24.5949 2.00335C25.2845 0.363886 27.1641 -0.425911 28.8216 0.238218ZM41.1795 40.8604C41.062 38.4687 41.445 36.0138 42.3931 33.6475C43.3384 31.2884 44.7508 29.2535 46.4801 27.6073C44.7041 25.9985 43.2376 23.9906 42.2341 21.6453C41.2347 19.3095 40.7945 16.8727 40.853 14.4865C38.461 14.6042 36.0057 14.2212 33.6392 13.273C31.2804 12.3278 29.2457 10.9156 27.5996 9.1865C25.9915 10.9609 23.9847 12.426 21.641 13.4288C19.3039 14.4288 16.8656 14.869 14.4782 14.8099C14.5961 17.2025 14.2132 19.6584 13.2647 22.0255C12.3195 24.3844 10.9073 26.4192 9.17811 28.0653C10.9529 29.6737 12.4184 31.6807 13.4214 34.0249C14.421 36.3612 14.8612 38.7986 14.8025 41.1852C17.1945 41.0676 19.6498 41.4505 22.0163 42.3988C24.3765 43.3445 26.4122 44.7578 28.0588 46.4883C29.6676 44.7119 31.6757 43.2452 34.0213 42.2416C36.3569 41.2422 38.7935 40.802 41.1795 40.8604Z" fill="url(#paint1_linear_16_13131)"/>
<path d="M35.2606 31.0093C33.6216 33.2763 30.932 34.7547 27.8919 34.7547C24.8518 34.7547 22.1622 33.2763 20.5232 31.0093" stroke="#7A3FB2" stroke-width="4.88535" stroke-linecap="round"/>
<defs>
<linearGradient id="paint0_linear_16_13131" x1="15.4198" y1="-2.31699" x2="36.291" y2="48.699" gradientUnits="userSpaceOnUse">
<stop stop-color="#FFAE31"/>
<stop offset="0.601327" stop-color="#AB5EBD"/>
<stop offset="1" stop-color="#4D40B5"/>
</linearGradient>
<linearGradient id="paint1_linear_16_13131" x1="17.2542" y1="1.95094" x2="37.9181" y2="52.1814" gradientUnits="userSpaceOnUse">
<stop stop-color="#EF950E"/>
<stop offset="0.541667" stop-color="#AA50BF"/>
<stop offset="0.739583" stop-color="#743DB0"/>
<stop offset="0.96875" stop-color="#4F41BB"/>
</linearGradient>
</defs>
</svg>
